<svg xmlns="http://www.w3.org/2000/svg" viewBox="0 0 959.41 325.62" ><defs><style>.cls-1{fill:#888;}</style></defs><title>资源 3</title><g id="图层_2" data-name="图层 2"><g id="图层_1-2" data-name="图层 1"><path class="cls-1" d="M256.85,24a24,24,0,0,1,24-24h0a24,24,0,0,1,24,24h0a24.05,24.05,0,0,1-24,24.07h0a24.06,24.06,0,0,1-24-24.07Zm2,0A22.07,22.07,0,0,0,280.9,46.09h0a22,22,0,0,0,22-22.05h0a22,22,0,0,0-22-22h0A22.09,22.09,0,0,0,258.82,24Z"/><path class="cls-1" d="M271.52,36.06V14.92h10.63a15.13,15.13,0,0,1,4.84.57,5,5,0,0,1,2.65,2,5.28,5.28,0,0,1,1,3.17A5.1,5.1,0,0,1,289,24.49a8.85,8.85,0,0,1-5.13,2,8.65,8.65,0,0,1,1.95,1.07,16.12,16.12,0,0,1,2.61,2.8l4.14,5.74h-4l-3.13-4.38c-1-1.28-1.72-2.25-2.33-2.93a5.46,5.46,0,0,0-1.57-1.37,4.54,4.54,0,0,0-1.47-.59,9.15,9.15,0,0,0-1.76-.11h-3.68v9.38Zm3.15-11.79h6.83a11,11,0,0,0,3.36-.41,3.51,3.51,0,0,0,1.88-1.27,3.09,3.09,0,0,0-.58-4.4,6.54,6.54,0,0,0-3.91-.93h-7.58Z"/><path class="cls-1" d="M340.47,227.78l10-26.81h12.71L373,227.78H362.36L361,222.64h-8.38l-1.37,5.14Zm13.22-10h6.18l-3.08-11.72Z"/><path class="cls-1" d="M396.73,227.78V201h11.16l8.83,16.55c-.34-2.79-.58-5.19-.77-7.2s-.23-3.73-.23-5.13V201h9.53v26.81H414.07l-9-17c.41,2.23.71,4.38.92,6.43a52.89,52.89,0,0,1,.34,6.09v4.51Z"/><path class="cls-1" d="M452.22,227.78V201h10.71v10.15h8.57V201H482v26.81H471.5V216.67h-8.57v11.11Z"/><path class="cls-1" d="M508.87,227.78V201h24.9v5.23H519.51v4.92h13.17v5.37H519.51v5.84h14.26v5.45Z"/><path class="cls-1" d="M559.87,227.78V201H571l8.9,16.55c-.36-2.79-.64-5.19-.79-7.2s-.25-3.73-.25-5.13V201h9.51v26.81H577.23l-9-17c.42,2.23.69,4.38.92,6.43a60.33,60.33,0,0,1,.29,6.09v4.51Z"/><path class="cls-1" d="M643.49,213.09v14.69h-7.38l-.48-1.69a10,10,0,0,1-3.55,1.6,16,16,0,0,1-4.42.53,21.14,21.14,0,0,1-5.14-.58,13.91,13.91,0,0,1-4.12-1.75,7.46,7.46,0,0,1-3-3.8c-.63-1.58-.9-4.27-.9-8.08a25.23,25.23,0,0,1,.64-6.47,7,7,0,0,1,1.92-3.65,12.1,12.1,0,0,1,5-2.68,28.12,28.12,0,0,1,7.44-.86q6.78,0,10.18,2.13a7.13,7.13,0,0,1,3.4,6.42v.46a2,2,0,0,0-.06.54H632.82v-.33a5.28,5.28,0,0,0-.82-3.33,3.47,3.47,0,0,0-2.71-1,3.58,3.58,0,0,0-3.15,1.23c-.55.81-.86,2.71-.86,5.66v4.51c0,3,.26,4.85.83,5.63s1.5,1.16,3,1.16a4,4,0,0,0,3.11-1,4.54,4.54,0,0,0,1-3.3c0-.37,0-.63,0-.82a5.06,5.06,0,0,0,0-.54H629v-4.68Z"/><path class="cls-1" d="M733.79,213.09v14.69h-7.37l-.47-1.69a9.75,9.75,0,0,1-3.54,1.6,16.08,16.08,0,0,1-4.4.53,21,21,0,0,1-5.18-.58,14.13,14.13,0,0,1-4.1-1.75,7.49,7.49,0,0,1-3.06-3.8c-.6-1.58-.91-4.27-.91-8.08a26.65,26.65,0,0,1,.64-6.47,7.27,7.27,0,0,1,1.91-3.65,12.57,12.57,0,0,1,5.09-2.68,27.92,27.92,0,0,1,7.44-.86q6.72,0,10.13,2.13a7.17,7.17,0,0,1,3.42,6.42c0,.1,0,.26,0,.46s0,.42,0,.54H723.18v-.33a5,5,0,0,0-.86-3.33,4.46,4.46,0,0,0-5.85.26c-.59.81-.83,2.71-.83,5.66v4.51c0,3,.23,4.85.76,5.63a3.34,3.34,0,0,0,3,1.16,4.17,4.17,0,0,0,3.15-1,4.59,4.59,0,0,0,1-3.3v-.82a2.37,2.37,0,0,1,0-.54h-4.22v-4.68Z"/><path class="cls-1" d="M760.24,227.78V201H772.3a75.32,75.32,0,0,1,8.56.34,13.87,13.87,0,0,1,4.32,1.1,7.32,7.32,0,0,1,3,2.34,5.54,5.54,0,0,1,.94,3.25,5.62,5.62,0,0,1-1.38,3.87,10,10,0,0,1-4.28,2.59c3.28.83,5,2.89,5.21,6.09v.09c0,.35,0,.83.06,1.48.08,3,.95,4.92,2.54,5.66H778.74a12,12,0,0,1-.64-1.73,15.07,15.07,0,0,1-.13-2c0-.44,0-.92,0-1.55s.05-1,.05-1.18c0-1.66-.37-2.78-1.08-3.37a6.68,6.68,0,0,0-4-.9h-2.2v10.71Zm10.58-15.62h1.32a10.46,10.46,0,0,0,4.72-.77,2.78,2.78,0,0,0,1.4-2.65,2.5,2.5,0,0,0-1.4-2.43,10.66,10.66,0,0,0-4.72-.7h-1.32Z"/><path class="cls-1" d="M814.46,214.37a33.39,33.39,0,0,1,.57-7.06,6.72,6.72,0,0,1,2-3.46,12,12,0,0,1,5.15-2.67,30.66,30.66,0,0,1,7.64-.83,30.24,30.24,0,0,1,7.61.83,12.08,12.08,0,0,1,5.1,2.67,7,7,0,0,1,2,3.48,41.72,41.72,0,0,1,0,14.1,6.89,6.89,0,0,1-2,3.52,12.65,12.65,0,0,1-5.1,2.61,34.23,34.23,0,0,1-15.25,0A12.81,12.81,0,0,1,817,225a6.83,6.83,0,0,1-2-3.48A33.76,33.76,0,0,1,814.46,214.37Zm19.73,2.43V212c0-3-.31-4.83-1-5.5s-1.78-1.06-3.46-1.06-2.79.32-3.44,1.08-.93,2.52-.93,5.48v4.82c0,2.91.29,4.72.93,5.45s1.82,1.11,3.5,1.11,2.82-.36,3.43-1.09S834.19,219.74,834.19,216.8Z"/><path class="cls-1" d="M871.13,201H882v16.8c0,2.55.29,4.12.82,4.74a5,5,0,0,0,5.82-.06c.52-.61.81-2.18.81-4.68V201H900v17.12a16.61,16.61,0,0,1-.42,4.34,7,7,0,0,1-1.4,2.52,9.71,9.71,0,0,1-4.74,2.63,30.72,30.72,0,0,1-8,.84,29.08,29.08,0,0,1-7.45-.78,10.08,10.08,0,0,1-4.6-2.54,7.14,7.14,0,0,1-1.72-3.17,32.71,32.71,0,0,1-.48-6.52Z"/><path class="cls-1" d="M926.89,227.78V201h10.52a81.86,81.86,0,0,1,8.63.33,19.08,19.08,0,0,1,4.66,1,8,8,0,0,1,3.86,2.68,7.05,7.05,0,0,1,1.3,4.28,6.75,6.75,0,0,1-3.65,6.18c-2.46,1.4-6,2.11-10.78,2.11h-3.79v10.26Zm10.75-15.27a2.16,2.16,0,0,1,.56.05,6.72,6.72,0,0,0,.84,0,9.58,9.58,0,0,0,4.66-.88,3.11,3.11,0,0,0,1.42-2.85,2.41,2.41,0,0,0-1.49-2.34,13.56,13.56,0,0,0-5.06-.68h-.93Z"/><path class="cls-1" d="M399.06,58.16V52.91H422.6v5.25h63.1l-5.16,27.45H457l1.89-9.34H362.76V86.78H338.54V58.16Zm-23.55,42.61h73.22V92.62h24.21v8.15H485v16.94H472.94v31c0,4.66-2.57,7.58-7.67,8.75L436.61,168l8.29,2.32c2.58,1.17,6.17,1.58,10.83,1.17H485v15.8H445.54a36.82,36.82,0,0,1-12.08-2.33l-24.22-8.78-26.75,10.52a24.92,24.92,0,0,1-8.91,1.71H339.19V172.64h23.57a39.88,39.88,0,0,0,11.45-1.76l7.64-2.91-25.47-11.69c-4.24-1.55-6.19-4.28-5.74-8.17v-30.4H339.19V100.77h12.08v-7h24.24Zm73.22,16.94H375.51v19.88c-.45,2.35,1.25,4.27,5.06,5.83l28,13.45,36.29-14.05c2.58-1.14,3.83-2.69,3.83-4.66Z"/><path class="cls-1" d="M524.84,72.18V56.4h21V72.18h7.6V90.87h-7.6v97.51h-21V90.87h-7v92.26H498.07V59.31h19.76V72.18ZM556,171.46h89.79v15.8H556ZM558,56.4H645.2V73.33H558Zm86.58,26.27v64.85q0,15.18-13.35,14.61H558V82.67ZM579,99.6v14h44.58v-14Zm0,31V145.2h41.38c1.68,0,2.76-1.18,3.2-3.52V130.61Z"/><path class="cls-1" d="M722,140.51v-4.09h21v3.52h61.75v14.6H743.68v30.93H722V155.1H660.89V140.51Zm-39.5,29.21,6.39-9.93H708l-11.45,20.42c-2.14,4.29-6.59,6.2-13.41,5.89H660.89V172.64h14C678.73,173,681.26,172,682.54,169.72Zm-21-99.29h8.28c3,.38,5.3-.8,7-3.52l8.28-12.84h21.67l-3.2,5.84h26.75l1.26-5.84H756.4l-.62,5.24h49.67V73.92H756.4V78.6h48.42v14H756.4v5.81h48.42v14H756.4v5.82h47.79v13.49H692.78v3.48h-23V85h-8.28Zm70.05,4.06h-38.8V79.2h38.8Zm0,24.56V93.79h-38.8v5.26Zm0,19.24v-5.23h-38.8v5.23Zm30.57,58.42-7.64-18.1h20.36l5.1,8.78c.87,3.1,3.84,4.48,8.92,4.07h15.3v13.47H774.87Q763.4,185.46,762.15,176.71Z"/><path class="cls-1" d="M959.41,54.66V174.37c0,8.18-4.45,12.3-13.36,12.3H821.22v-132Zm-21,18.1H842.23v98.12h93c1.69,0,2.78-1.16,3.19-3.49Zm-72,74.18,14-37.39h19.74l-16.57,45q-3.82,12.26-17.18,11.08H848.61v-14h11.46C862.63,152.39,864.72,150.82,866.44,146.94Zm36.3-61.33V77.42h21v8.19h9v16.33h-9v52.6c.45,8.17-3,11.87-10.19,11.08H889.36v-14h10.21c1.65,0,2.72-1.16,3.17-3.49V102.53H849.23V85.61Z"/><path class="cls-1" d="M122.12,204.73C60.77,210.43,8.79,177.07,6,130.23c0-.74,0-1.47-.06-2.21H.23a105.19,105.19,0,0,0-.11,12c3.14,64.44,64.67,110.31,137.41,102.47,53-5.71,97.25-38.33,116.23-80.51H209.41C190.41,184.78,158.74,201.33,122.12,204.73Z"/><path class="cls-1" d="M126.16,9.2C64.4,15.85,14.42,59.1,2.65,111.44H7.6c8.84-39,51.47-71.43,104.48-76.36,38-3.53,72.42,8,93.76,28.33h42.85C225.7,26.05,178.88,3.51,126.16,9.2Z"/><path class="cls-1" d="M225.11,116l-3.53,14.1h16.19L235.35,139h-24.9c-4.44,0-7.13-.71-5.62-7.5s3.87-19.21,4.32-22.54,4.81-8.14,11.15-8.14h41.32s-.56-3.19-1.93-8.47a70.7,70.7,0,0,0-2.94-8.61H214c-6.72,0-17.85-1.35-21.67,18.25-2.9,14.91-6.66,34.94-8.82,46.19-.81,4.14,2,8,8.08,8h63.8c5.78-15.45,7.17-26.48,7.46-40.12Z"/><path class="cls-1" d="M105.36,83.74c-.6,0-1.32,0-2.2,0h-.25c-13.82.37-56.07,7.53-69.62,71.85h3.3a93.7,93.7,0,0,1,16.13-26.89H84.39l2.4-11.29H64.19A81,81,0,0,1,92.86,102L81.7,155.6H95.37c4.41,0,5.13-.75,6.06-4.64l13.86-67.23Z"/><path class="cls-1" d="M186,83.71H168.39l-6.91,33.81H140.89l-2.23,11h20.59L153.7,155.6H170c4.38,0,5.13-.73,6.05-4.54L189.16,87C189.07,84.78,188,84,186,83.71Z"/><path class="cls-1" d="M121.83,83.71,107.1,155.6h18c3.69,0,4.81-.53,5.61-3l14.1-68.92Z"/><path class="cls-1" d="M51.22,312.1q6,2.59,12.89,5.76L74.3,309.3H49.06v-3.24l2.19-5.42H40.51v-3.33H52.6l2.43-6H43.25V288H56.37l2.38-5.82h4.09L60.48,288H81.81v3.32H59.14l-2.44,6h28v3.33H55.35L53.17,306H79.42v3.41l-12,10c2,.94,4.08,1.9,6.21,2.91l-2.2,3.32Q60.14,319.86,49.34,315Z"/><path class="cls-1" d="M113.11,319.07h14.45V282.91h3.8v36.16h7.89V282.91H143v36.16h14.58v3.23H113.11Zm5.23-27.58q3.69,8.44,7.16,17.94l-3.69,1.62q-3-9.23-6.76-18.16Zm26.31,18.34a171.18,171.18,0,0,0,7.56-17.95l3.65,1.4q-4.17,10.46-8,18Z"/><path class="cls-1" d="M185.73,321.82a53.49,53.49,0,0,0,6.75-6.7l2.62,1.75a55.83,55.83,0,0,1-7.08,7Zm.26-21.58h12.15c-.43-.78-.9-1.53-1.38-2.23l2.06-1h-7.37v1.15h-3.07v-14.1h22.44v14.1h-3.06V297H199.9a34.89,34.89,0,0,1,1.84,3.2h12v2.54H186Zm3.12,5h21.07v9.19h-3.05v-.66h-5.59v6.08c0,3.36-1.57,5-4.69,5l-4.14,0a21.35,21.35,0,0,0-.59-3.11,31,31,0,0,0,3.92.3c1.6,0,2.4-.84,2.4-2.54v-5.73h-6.27v.66h-3.06Zm18.65-18.73H191.45v2.88h16.31Zm-16.31,8.05h16.31v-2.89H191.45Zm15.68,13h-15v3.82h15Zm-3.43,9.16,2.12-1.89c1.71,1.33,3.66,2.93,5.81,4.82L209.29,322A52.62,52.62,0,0,0,203.7,316.79Zm7.4,6.09a50.82,50.82,0,0,0,16.66-15.63l2.79,2a55.27,55.27,0,0,1-17.08,16.2A14.84,14.84,0,0,0,211.1,322.88Zm1.12-28.81a48.61,48.61,0,0,0,12.34-11.25l2.79,2a54.91,54.91,0,0,1-12.75,11.73A25.51,25.51,0,0,0,212.22,294.07Zm.49,12.82A58.31,58.31,0,0,0,226.63,294l2.79,2.14a78.75,78.75,0,0,1-14.36,13.43A29.34,29.34,0,0,0,212.71,306.89Z"/><path class="cls-1" d="M258.62,303.34a77.65,77.65,0,0,0,9.68-21.22l3.38.83c-1.42,4.08-2.9,7.85-4.46,11.27v31h-3.16V300.48a66.39,66.39,0,0,1-4.05,6.46C259.59,305.71,259.12,304.51,258.62,303.34Zm40-.21,2.34,2.41c-1.86,1.22-3.82,2.43-5.87,3.61a20.76,20.76,0,0,0,8.4,10.31,24.73,24.73,0,0,0-3,2.67,28.35,28.35,0,0,1-8-11.58l-2.14,1.14a19.11,19.11,0,0,1,.74,5.67c-.05,5-2.4,7.44-7,7.35-1.14,0-2.62,0-4.42-.09a30.72,30.72,0,0,0-.77-3.24c2.38.23,4,.36,5,.36,2.67.05,4.06-1.46,4.14-4.56a18.26,18.26,0,0,0-.26-3.15q-5.78,5.19-16,9.67a33.05,33.05,0,0,0-2.08-2.7A49.14,49.14,0,0,0,287,311a18.56,18.56,0,0,0-1.09-2.36,52,52,0,0,1-14.36,8.62,28.12,28.12,0,0,0-2.08-2.63,44.05,44.05,0,0,0,15-8.27c-.43-.58-.91-1.15-1.41-1.73a56.47,56.47,0,0,1-11.52,6.24,27.62,27.62,0,0,0-2.08-2.54q8.74-3.33,12.53-6.57h-5.14v1H273.7v-8.45c-.82.7-1.66,1.39-2.52,2.05a26.92,26.92,0,0,0-1.89-2.79,54.41,54.41,0,0,0,11.59-11.42h3.82c-.79,1.16-1.64,2.3-2.53,3.41h12.66v2.58l-4.05,4.08h9.72v9.53H286.07c-.27.33-.56.65-.87,1a23.22,23.22,0,0,1,4.3,6.35A82.28,82.28,0,0,0,298.66,303.13Zm-8.15-14.84H279.88c-1.22,1.36-2.51,2.67-3.86,3.95h10.8Zm-13.7,10.76h7.48a11.42,11.42,0,0,0,1.51-4.1h-9Zm20.59,0V295h-8.34a16,16,0,0,1-1.33,4.1Z"/><path class="cls-1" d="M343,312.19l2.93,2.23q-5.77,5-12.12,9.73c-.72-.86-1.54-1.74-2.47-2.68A92.66,92.66,0,0,0,343,312.19Zm20.28-12q5.74,4.5,11.79,9.89c-1,.94-1.91,1.82-2.75,2.67-1.24-1.19-2.49-2.39-3.78-3.55q-6,.24-12.29.57v9.85c0,3.33-1.81,5-5.4,5-1.48,0-3.42,0-5.82-.1-.15-1.06-.35-2.26-.59-3.58q3.78.39,5.81.39c1.66,0,2.48-.78,2.48-2.36v-9l-11.13.62a43.53,43.53,0,0,0-5.09.56l-1.49-3.76a24.44,24.44,0,0,0,5.64-1.71q6.9-3.27,12.79-6.6c-5.22.4-9.61.73-13.15,1.05a32,32,0,0,0-3.56.48l-1.45-3.68a17.91,17.91,0,0,0,4.06-1.52,100,100,0,0,0,11.33-7.26q-7.72.46-15.66.82a23.8,23.8,0,0,0-.81-3.06q21.5-.8,38.17-2.42l.67,3.12q-9.79.78-19.85,1.41l1.83,1.25c-4.71,3.07-9.08,5.66-13.07,7.74q10.1-.54,16.72-1,4.52-2.81,8.33-5.65l2.93,2.32a170.38,170.38,0,0,1-26.26,14.67q9-.31,21.73-.92-2.25-2-4.52-3.94Zm-2.66,14.35,2.29-2.37q5.67,3.69,12.48,8.81l-2.66,2.84Q366.45,318.7,360.65,314.51Z"/><path class="cls-1" d="M404.37,317.84q7.49-1.39,15.46-3.16c-.13,1.52-.18,2.58-.18,3.16q-8.14,1.76-14.24,3.32Zm5.87-9.19c2.4-.33,5.48-.76,9.23-1.32-.17,1.17-.33,2.25-.44,3.24-3.76.5-8.07,1.13-12.89,1.88l-.73-3.15a50.27,50.27,0,0,0,6.69-9.13l-6.73.47-.85-3q4-5.07,8.56-15.49l3.41,1.31c-2.9,5.54-5.57,10.18-8,13.91q2.94,0,5.31-.12c.9-1.57,1.84-3.26,2.84-5.08l3.37,1.44A167.71,167.71,0,0,1,410.24,308.65Zm30.32-14.75c2.53,3.29,5.09,7,7.74,11.16-1.05.58-2.16,1.24-3.33,2-.75-1.24-1.47-2.43-2.17-3.57q-2.08.14-4.32.24v14.84c0,1.79.67,2.67,2,2.67h2.2a2.3,2.3,0,0,0,2.53-2.19,53.65,53.65,0,0,0,.45-5.69c1,.4,2.18.83,3.61,1.27q-.37,3.81-.78,5.91c-.41,2.53-2,3.8-4.72,3.8h-3.88q-4.91,0-4.91-5.46v-15l-5.22.3c-.25,6.35-1.08,10.77-2.53,13.29q-2.55,4.8-9.59,8c-.65-.91-1.43-1.89-2.3-2.94q6.54-2.58,8.74-6.78,2-3.36,2.19-11.32l-1.88.11a28.58,28.58,0,0,0-3.6.57l-1.52-3.42a8.17,8.17,0,0,0,3.1-2.1,75.75,75.75,0,0,0,6.35-8.52h-9.81v-3.13h14.37c-1.13-1.68-2.2-3.15-3.21-4.45l3-1.8c1.13,1.38,2.42,3,3.83,4.91l-2.15,1.34h13.73v3.13h-18.3l2.48,1c-2.5,3.27-4.93,6.27-7.34,9q8.49-.28,15.61-.58-1.71-2.69-3.26-4.9Z"/><path class="cls-1" d="M477.22,294.47a44.54,44.54,0,0,0,8-12.35l3.16.83c-.63,1.23-1.23,2.41-1.87,3.54H495v2.72l-3.3,4.69h5.75v26.4q0,4.36-4.47,4.41c-1.28,0-2.63,0-4-.09-.1-.72-.26-1.7-.5-2.93,1.43.14,2.73.22,3.87.22,1.45,0,2.17-.69,2.17-2.06v-7.13h-4.06v8.1h-2.94v-8.1h-4q-.39,8.23-3.7,12.61a16.61,16.61,0,0,0-2.53-2.23c2.23-3.19,3.33-7.47,3.33-12.83V295.39c-.41.5-.83,1-1.25,1.48A26.28,26.28,0,0,0,477.22,294.47Zm4.56-.57h6.29l3.29-4.73H485Q483.41,291.72,481.78,293.9Zm1.79,8.09h3.95v-5.52h-3.95Zm0,8.14h3.95v-5.55h-3.95Zm10.95-13.66h-4.06V302h4.06Zm-4.06,13.66h4.06v-5.55h-4.06Zm8.83-25.73h20.27c-.09,2.86-.23,5.54-.46,8.05-.2,3.55-2.14,5.34-5.8,5.34-1.26,0-2.81,0-4.64-.13-.18-1.23-.4-2.4-.63-3.5a45.76,45.76,0,0,0,5.09.4,2.42,2.42,0,0,0,2.65-2.55c.16-1.31.26-2.85.32-4.64h-8.54a15.13,15.13,0,0,1-1.6,6.92c-1,2-3.07,3.91-6.07,5.78a32.1,32.1,0,0,0-2.16-2.8,13.17,13.17,0,0,0,5.18-4.33,11.47,11.47,0,0,0,1.37-5.57h-5Zm-.45,28.72h10.63v-6.31H504q-1,2.52-2,4.73a17.87,17.87,0,0,0-2.92-1.32,64.29,64.29,0,0,0,4-10.64l3.11.83c-.37,1.19-.74,2.33-1.12,3.42h4.4v-4.72h3.34v4.72h8.06v3h-8.06v6.31H522v3h-9.14v9.2h-3.34v-9.2H498.84Z"/><path class="cls-1" d="M556.86,301.34a22.82,22.82,0,0,0,3.56,2q-3.74,10.17-6.44,18.4l-3.65-1.93A132.93,132.93,0,0,0,556.86,301.34Zm-3.11-16.51c3,2.9,5.61,5.57,7.89,8.06l-3.06,2.71q-3.66-4.55-7.48-8.44Zm8,18.79H574c.27-2.58.41-6,.45-10.25H564.34v-3.16h10.15q.07-3.88.08-7.83h3.55c0,2.6,0,5.21-.07,7.83h11.56v13.41H595v3.14H578.37q4.08,10,15.89,14.32c-1.2,1.28-2.25,2.45-3.11,3.5q-10.8-5.32-14.92-14.93-2.78,9.69-14.77,15.71c-.6-.88-1.45-2-2.56-3.32q12.69-5.85,14.66-15.28H561.73Zm24.41-10.25H578c0,4.06-.17,7.49-.39,10.25h8.52Z"/><path class="cls-1" d="M623.84,289.69h21.63c-1.52-2.8-2.7-4.84-3.57-6.13l3.52-1.61c.84,1.25,2.1,3.29,3.8,6.12l-3.3,1.62h21.35V293H640q-.16,4-.34,6.78h21.76c-.37,6.33-.75,11.84-1.18,16.5q-.48,7.92-7.93,7.93c-2.28,0-5.32-.11-9.13-.35-.16-1.11-.38-2.45-.68-4a74.25,74.25,0,0,0,9.28.74c2.76,0,4.3-1.58,4.64-4.76q.54-5.22,1-12.75h-18q-1.25,14.46-13.76,22.42c-.81-.93-1.73-1.93-2.75-3q11.89-7.61,12.75-20.4c.21-2.3.39-5.33.52-9.1H623.84Z"/><path class="cls-1" d="M740.87,320.78a40,40,0,0,0-2.61,3.28c-7.92-2.3-14-5.14-18.24-8.47v9.87h-3.26v-9.82q-6.81,4.69-18.15,8.46c-.67-.85-1.55-1.84-2.6-3q11.61-2.82,18.39-7H697v-2.93h19.72v-3.6H720v3.6h20v2.93H722.47Q729.6,318.82,740.87,320.78Zm-42.53-14.15a124.2,124.2,0,0,0,16.92-2.78q-5.4-1.39-10.92-2.73c1.23-1.28,2.41-2.56,3.52-3.81H697.14v-2.89h13.14q1.71-2.1,3.16-4.16l3.65,1c-.81,1.06-1.67,2.11-2.59,3.16h25.16v2.89H730a17.2,17.2,0,0,1-5.78,6c4.28,1.09,8.33,2.14,12.08,3.14l-1.43,2.95q-7.15-2.2-14.54-4.18-6.82,2.61-20.65,4.3A27.75,27.75,0,0,0,698.34,306.63Zm0-20.4h18.87c-.57-1-1.22-2-2-3.11l3.2-1.39c1,1.48,1.9,3,2.77,4.5h17.18v6.62H735v-3.73H701.78v3.73h-3.44Zm11.14,13.48c3.66.89,7.16,1.73,10.54,2.57a14,14,0,0,0,6.19-5H711.86C711.1,298.1,710.29,298.92,709.48,299.71Z"/><path class="cls-1" d="M768.8,305.36c1.91-.79,3.86-1.65,5.81-2.54V293.5h-5.45v-3h5.45v-8.14H778v8.14h5.77v3H778v7.7c1.73-.82,3.45-1.7,5.18-2.63.09,1.14.21,2.32.37,3.52-1.85.88-3.7,1.78-5.55,2.68V320q0,4.25-3.34,4.59a43.73,43.73,0,0,1-5.26.14c-.18-1.23-.38-2.44-.59-3.64,1.66.17,3.06.26,4.23.26,1,0,1.54-.53,1.54-1.61V306.48q-2.72,1.36-5.36,2.73Zm10.9,17.95q6.34-5.18,7.12-14.79h3.37a30.77,30.77,0,0,1-.92,5.73,14.13,14.13,0,0,0,7.45,5.73V306.81H782.81v-2.89h30.36v2.89H800.1v4.9h11.32v2.8H800.1v6.17a120.21,120.21,0,0,0,13.61,0c-.06.15-.41,1.22-1,3.24-3.59.08-7.29,0-11.13-.13q-9.1-.11-13.39-6.22a21.43,21.43,0,0,1-5.48,7.83A24.78,24.78,0,0,0,779.7,323.31Zm7-39.22H809.2v17.29H806v-1.26H790v1.26h-3.24Zm19.23,2.8H790v3.81h16Zm-16,10.42h16v-3.85H790Z"/><path class="cls-1" d="M841.27,303.22a73.57,73.57,0,0,0,11.13-21.05l3.61,1.26c-1.55,3.9-3.17,7.47-4.83,10.73v31.12h-3.61V300.54a63.62,63.62,0,0,1-4.76,6.61C842.38,306,841.87,304.66,841.27,303.22Zm26,10.9a98.39,98.39,0,0,1-11.09,11.24,19.67,19.67,0,0,0-2.74-2.54A52.53,52.53,0,0,0,864.11,312Zm7.52-31.56h3.71v9.63h6.43v3.16h-6.43v12.07h8v3.15H853.71v-3.15h7.61V295.35h-5.81v-3.16h5.81v-9.58H865v9.58h9.73ZM865,307.42h9.73V295.35H865Zm7.57,6.61,2.66-2.19q7.13,6.38,11.13,10.68l-3,2.67A154.89,154.89,0,0,0,872.58,314Z"/><path class="cls-1" d="M915,286.85h20.57c-.57-1-1.28-2.19-2.1-3.47l3.46-1.52c.92,1.5,1.85,3.17,2.84,5h19.42V290H915Zm3.29,9.36h11c-1-1.47-2.17-2.93-3.38-4.38l2.73-1.79c1.45,1.64,2.77,3.16,3.93,4.56l-2.43,1.61h10.22a56.89,56.89,0,0,0,4.2-6l3.41,1.94c-1.42,1.64-2.62,3-3.59,4.06h11.21v22.94c0,3.67-1.73,5.53-5.18,5.56-1.87,0-4,0-6.31,0a32.33,32.33,0,0,0-.67-3.66c2.37.22,4.33.34,5.87.34,2,0,2.91-1,2.91-3.15v-19H921.69v26h-3.38Zm13.19,3.5L934,302c-3.53,2.93-6.81,5.49-9.88,7.71a28.12,28.12,0,0,0-2.12-2.59A70.56,70.56,0,0,0,931.5,299.71ZM928,320.9V306.81H946.1v11.77H931.29v2.32Zm14.82-5.12v-6.17H931.29v6.17Zm-3.44-13.66,2-2.41q6.68,4.08,10.09,6.53L949.27,309A117.59,117.59,0,0,0,939.42,302.12Z"/></g></g></svg>