<?xml version="1.0" encoding="utf-8"?><svg xmlns="http://www.w3.org/2000/svg" id="schriftzug-mission-e" width="400" height="60" version="1" viewBox="0 0 400 60"><g fill="#333"><path d="M361.922 47.81c5.095-2.67 9.812-4.72 12.79-5.96 2.995-1.246 5.44-2.172 6.552-2.584 2.518-.934 2.672-.934 2.91-.84.313.125.743.872 1.096 1.468.38.642.81 1.395.705 1.654-.076.19-.208.293-2.47 1.04-1.19.394-3.02.993-6.27 1.874-3.056.828-8.166 2.103-15.313 3.348zm.855 3.488c12.26-1.87 18.84-3.895 23.067-5.233 4.19-1.33 6.054-2.093 7.156-2.638 1.94-.96 1.67-1.7 1.264-2.768-1.528-4.028-5.296-7.127-7.473-7.204-1.233-.042-4.46.542-11.618 3.105-7.444 2.665-15.645 6.51-20.04 10.225-3.837 3.243-4.17 6.08-.792 7.802 1.89.965 5.222 1.852 12.18 2.186 5.314.255 19.718.576 33.48-5.37-1.734-2.81-1.362-3.105-4.63-2.132-1.718.512-4.567 1.44-9.626 2.155-4.833.684-12.592 1.238-22.967-.127zM63.32 38.08c32.825-24.376 39.245-28.616 44.42-31.998 4.29-2.802 4.95-2.87 5.745-2.733 1.106.19 2.855 1.72 3.79 2.518 1.656 1.41 3.062 2.702 2.5 4.063-.348.85-1.448 2.294-4.588 6.177-3.887 4.807-7.083 8.57-13.946 16.74-5.734 6.828-10.43 12.646-10.823 16.04-.182 1.576.54 2.613 2.495 2.755 2.28.168 5.372-.432 17.75-3.713 1.5-1.92 8.78-11.254 9.82-12.587l9.67-1.58-12.76 17.05c.283.798 2.194.382 3.5.162 4.62-.78 9.246-1.547 13.865-2.333-1.985 2.697-1.38 2.776.975 3.1 2.26.31 5.1.353 7.344.174 4.496-.36 6.616-1.425 6.964-1.976.675-1.063-4.973-2.156-10.365-3.505-2.37-.593-5.162-1.218-6.168-1.846-1.04-.65-2.83-2.858 3.903-6.158 4.56-2.234 12.34-4.385 20.838-4.685 8.43-.298 14 1.154 12.604 4.078l-9.9 1.907c-.43-1.964-1.45-2.242-3.956-2.333-2.457-.09-5.054.25-7.174.885-2.044.613-3.243 1.37-3.597 1.855-.367.505.03.787.787 1.036 1.16.38 5.635 1.345 10.973 2.596 2.56.6 4.916 1.157 6.177 1.788 1.152.574 2.388 1.743 1.535 3.704l.226-.035 9.232-1.567c-2.55 3.433-2.038 3.768.637 4.187 2.488.39 5.92.368 8.345.163 5.015-.424 7.15-1.495 7.512-2.05.696-1.06-4.978-2.158-10.36-3.506-2.37-.593-5.162-1.218-6.168-1.846-1.04-.648-2.83-2.856 3.902-6.156 4.56-2.235 12.34-4.385 20.837-4.685 8.43-.298 14 1.152 12.605 4.077-3.3.636-6.6 1.27-9.9 1.907-.43-1.965-1.45-2.243-3.954-2.333-2.457-.09-5.055.25-7.174.886-2.045.614-3.243 1.37-3.596 1.855-.37.507.03.79.785 1.04 1.134.37 5.456 1.305 10.626 2.513 2.496.582 4.927 1.15 6.242 1.735 1.25.554 2.452 1.55 2.002 3.31.562.154 1.36.108 3.553-.2 2.662-.4 3.855-.59 5.68-.91 1.22-1.46 9.77-11.673 10.99-13.133 1.06-.13 8.48-1.03 9.54-1.158-1.553 1.932-12.414 15.46-13.964 17.393.444 1.273 5.698-.175 9.25-.75 1.09-4.84 14.727-16.388 33.338-17.172 3.723-.157 6.835.33 8.842 1.478 2.43 1.392 1.86 1.72 1.925 1.834.268.473.423.97.472 1.456.238 1.165 6.6-.153 12.19-1.146l.85-1.113 8.653-1.122-4.68 5.953 27.692-5.58c.796-.153 1.5-.018 2.075.532.3.446 2.022 2.358 1.11 3.574l-5.814 7.606c-2.88 3.458-1.54 4.157 1.02 3.893 1.4-.17 3.942-.58 6.34-1.11.856-.207 1.672.032 1.946.474.652.96.782 1.218 1.383 2.34-11.614 2.714-19.002 3.303-20.345 3.378-9.46.54-3.293-5.435-2.235-7.096 1.06-1.457 5.262-7.143 5.185-7.32-.076-.177-17.765 3.256-22.37 4.138l-7.945 10.255c-.815 0-6.524-.02-7.338-.023l11.225-14.263c-4.78.785-9.9 1.783-10.16.522-2.355 3.69-7.867 7.7-15.263 10.734-11.91 4.89-24.188 5.407-27.33 1.245-1.133.295-7.467 1.21-8.475 1.356-2.906.424-4.013.098-4.192-.693l-1.07 1.166c-.996-.006-7.964-.037-8.96-.042l2.397-3.176c-1.815.273-2.818.422-5.314.764-2.376.285-3.59-.028-4.124-.5-7.28 3.305-19.188 4.777-29 4.584-4.587-.09-8.088-.533-9.784-1.31-1.84-.846-1.674-1.93-1.05-4.242-5.747 3.706-18.975 5.66-27.905 5.87-4.53.106-8.04-.154-9.898-.615-2.015-.498-2.194-1.142-2.34-2.484-1.228.207-3.584.53-4.59.676-2.906.424-4.013.098-4.132-.606l-.74.938-9.003.155 2.166-2.98c-16.002 3.837-20.632 4.73-24.01 4.478-2.967-.222-4.28-1.633-4.782-3.227-1.07-3.398 1.518-7.666 4.29-11.3 3.18-4.17 10.483-12.313 14.163-16.6 4.993-5.82 6.307-7.826 5.622-8.162-.756-.37-5.752 2.766-19.773 13.108-10.448 7.706-18.697 13.834-24.15 17.66-2.44 1.712-4.06 2.777-5.258 3.365-1.383.68-1.887.87-6.74 1.348 10.767-17.477 15.99-24.87 18.985-29.536 2.847-4.436 3.573-6.097 2.89-6.434-.708-.35-2.54.543-8.21 4.432-6.326 4.34-15.825 11.3-47.312 34.02C8.677 56.007 4.34 56.527 0 57.048 46.075 21.98 60.522 12.952 68.76 7.563c7.44-4.87 8.13-5.033 9.22-5.062 1.518-.04 3.14 1.493 4.105 2.486.86.883 2.14 2.21 2.325 3.01.135.58.106 1.003-2.52 4.52C79.4 15.85 72.194 24.37 63.32 38.08zm189.69 1.588c-7.034 2.958-11.737 6.922-9.836 9.213 1.903 2.294 10.03.518 16.705-2.33 6.674-2.846 12.2-6.144 10.3-8.437-1.903-2.292-8.94-1.404-17.17 1.555zM128.03 28.13c2.9-.893 5.55-.777 5.92.26.37 1.035-1.68 2.6-4.58 3.493-2.9.893-5.55.777-5.92-.26-.37-1.036 1.68-2.6 4.58-3.492zm106.85-.36c2.9-.894 5.55-.778 5.92.258.37 1.035-1.68 2.6-4.58 3.493-2.9.894-5.55.778-5.92-.257-.37-1.037 1.682-2.6 4.58-3.494z"/></g></svg>